<svg fill="none" height="34" viewBox="0 0 158 34" width="158" xmlns="http://www.w3.org/2000/svg" xmlns:xlink="http://www.w3.org/1999/xlink"><clipPath id="a"><path d="m.5.5h157.27v33h-157.27z"/></clipPath><clipPath id="b"><path d="m.5.500122h157.27v32.9997h-157.27z"/></clipPath><g clip-path="url(#a)"><g clip-path="url(#b)"><g fill="#131d34"><path d="m15.59 33.0706c-.1278.0121-.2558-.0202-.3626-.0914-.1068-.0711-.1859-.1769-.224-.2994l-5.08386-10.3618h-4.57472c-.03191-.0046-.06444-.0016-.09502.0086s-.05836.0274-.08116.0502c-.02279.0227-.03996.0505-.05017.0811-.0102.0306-.01316.0631-.00862.095v10.1277c.00315.0522-.0048.1044-.02333.1532s-.04721.0932-.08415.1301c-.03693.037-.08129.0657-.13013.0842s-.10106.0265-.15321.0233h-3.831438c-.052112.0031-.104276-.005-.15306-.0236-.048784-.0185-.093089-.0472-.13-.0841-.036911-.037-.065598-.0813-.08417-.13-.018573-.0488-.026616-.101-.023598-.1531v-25.80912c-.003148-.05214.004815-.10435.023342-.1532.018527-.04884.047208-.0932.084146-.13014s.081291-.06562.130134-.08415c.048842-.01852.101063-.02649.153206-.02334h10.283508c4.888 0 8.4853 3.24563 8.4853 7.93785.0379 1.595-.4295 3.1611-1.3355 4.4744-.9059 1.3133-2.2039 2.3066-3.7084 2.8376l5.5946 10.8318c.0382.0481.0615.1063.0669.1675.0055.0612-.0071.1226-.0362.1767s-.0734.0984-.1274.1276c-.0541.0292-.1155.0419-.1767.0365zm-.5083-18.6521c0-2.3074-1.6424-3.7931-4.0664-3.7931h-5.66968c-.03184-.0045-.06429-.0016-.0948.0086-.0305.0102-.05823.0273-.08101.05-.02277.0227-.03998.0503-.05024.0808-.01027.0305-.01331.0629-.00892.0948v7.0779c-.00439.0318-.00135.0642.00892.0947.01026.0305.02747.0582.05024.0809.02278.0227.05051.0397.08101.0499.03051.0102.06296.0131.0948.0086h5.66968c2.4272.0008 4.0696-1.4849 4.0696-3.7531z"/><path d="m34.8703 33.0706c-.0521.0032-.1044-.0048-.1532-.0233-.0489-.0185-.0932-.0472-.1301-.0841-.037-.037-.0657-.0813-.0842-.1302-.0185-.0488-.0265-.101-.0233-.1532v-1.369h-.0392c-.8991 1.2899-2.659 2.1898-5.318 2.1898-3.4406 0-6.3346-1.7982-6.3346-5.748 0-4.1055 2.8932-5.9829 7.5462-5.9829h3.8355c.0318.0047.0644.0019.0949-.0082.0306-.0101.0585-.0272.0813-.05.0228-.0227.04-.0505.0502-.081.0102-.0306.0131-.0631.0085-.095v-.8999c0-2.1507-1.0166-3.1281-4.1839-3.1281-1.5405-.0851-3.0622.3715-4.3013 1.2907-.0386.0369-.085.0645-.1359.0807-.0508.0163-.1046.0207-.1574.013s-.1031-.0274-.1472-.0574c-.044-.0301-.0806-.0699-.107-.1162l-1.4466-2.5807c-.0566-.078-.08-.1754-.0651-.2706.015-.0953.0672-.1808.145-.2377 1.9723-1.3176 4.3176-1.9624 6.6863-1.8382 5.748 0 7.8595 1.9549 7.8595 6.5696v12.3167c.0031.0522-.0048.1044-.0233.1532-.0186.0489-.0472.0932-.0842.1302-.0369.0369-.0813.0656-.1301.0841-.0489.0185-.1011.0265-.1532.0233zm-.4691-6.3346v-1.4466c.0044-.0318.0013-.0642-.009-.0947-.0102-.0305-.0274-.0582-.0502-.0809s-.0505-.0398-.081-.0499c-.0305-.0102-.063-.0131-.0948-.0086h-3.1282c-2.8156 0-4.0664.7816-4.0664 2.5415 0 1.5641 1.1341 2.3465 3.2456 2.3465 2.6982-.0008 4.184-1.0574 4.184-3.2041z"/><path d="m44.1228 14.2227h1.9309c.3248 0 .6362.129.8658.3586.2297.2296.3586.541.3586.8658v16.3983c0 .3247-.1289.6362-.3586.8658-.2296.2296-.541.3586-.8658.3586h-1.9301c-.3249 0-.6365-.1291-.8663-.3589-.2298-.2297-.3589-.5414-.3589-.8663v-16.3975c0-.3248.129-.6362.3587-.8658.2296-.2296.541-.3586.8657-.3586z"/><path d="m50.8131 30.5284c-.0371-.0353-.0666-.0778-.0867-.1248-.0202-.0471-.0306-.0978-.0306-.1489 0-.0512.0104-.1019.0306-.1489.0201-.0471.0496-.0896.0867-.1249l2.229-2.3465c.0353-.037.0778-.0666.1249-.0867.047-.0202.0977-.0306.1489-.0306s.1018.0104.1489.0306c.047.0201.0895.0497.1248.0867 1.5314 1.3377 3.4819 2.0984 5.5146 2.1507 2.3073 0 3.4798-.9383 3.4798-2.229 0-1.1341-.665-1.8382-3.1281-2.0724l-2.0333-.1958c-3.8322-.3908-5.7871-2.3457-5.7871-5.5521 0-3.6365 2.6199-5.9438 7.3121-5.9438 2.5504-.0422 5.0416.77 7.077 2.3073.0417.0303.0769.0687.1036.1128.0266.0441.0442.0931.0516.1441.0075.051.0046.103-.0083.1529s-.0357.0967-.067.1377l-1.9181 2.3073c-.0299.0422-.0681.0778-.1122.1047-.0442.027-.0933.0448-.1444.0522-.0512.0075-.1033.0045-.1533-.0087s-.0968-.0365-.1375-.0683c-1.4564-.9866-3.1676-1.5299-4.9264-1.564-1.8766 0-2.8548.8208-2.8548 1.9549 0 1.0949.6649 1.7582 3.089 1.994l2.0332.1958c3.9489.3908 5.8262 2.424 5.8262 5.5146 0 3.7563-2.7373 6.3738-7.8986 6.3738-2.9787.0765-5.8742-.9875-8.0945-2.9747z"/><path d="m69.9823 28.2578c-.4671-1.4925-.6916-3.0503-.6649-4.6139-.0367-1.5745.1745-3.145.6258-4.6539 1.0557-3.2847 3.9497-5.2004 7.7028-5.2004 3.8714 0 6.6863 1.998 7.742 5.2004.43 1.3291.6258 2.6199.6258 5.6697.0019.0552-.0083.1102-.0298.1611-.0215.051-.0539.0966-.0948.1337-.0409.0372-.0894.0651-.1421.0816-.0527.0166-.1084.0215-.1633.0144h-11.6134c-.0318-.0045-.0642-.0016-.0947.0086-.0305.0101-.0582.0272-.0809.05-.0227.0227-.0398.0504-.05.0809-.0102.0304-.0131.0629-.0085.0947.0104.5784.1353 1.149.3673 1.6788.2321.5299.5668 1.0086.9848 1.4085.4181.3999.9111.713 1.4508.9214.5396.2084 1.1152.3079 1.6934.2927.8229.0385 1.6443-.1024 2.4074-.4129.763-.3105 1.4494-.7832 2.0115-1.3854.0316-.046.0724-.0848.1198-.1141.0475-.0293.1006-.0483.1558-.0558.0553-.0075.1115-.0034.1651.0121.0535.0155.1032.042.1459.0779l2.3074 2.0332c.0436.0298.0799.069.1063.1147.0263.0458.0419.0969.0457.1496.0037.0526-.0045.1055-.024.1545-.0195.0491-.0499.093-.0889.1287-.9788 1.0663-2.1789 1.9058-3.5163 2.4596-1.3373.5539-2.7795.8088-4.2257.7469-3.9897.0048-6.8045-1.9501-7.8603-5.2373zm11.3777-8.3263c-.3126-.7203-.8289-1.3336-1.4854-1.7644-.6565-.4307-1.4246-.6602-2.2098-.6602s-1.5533.2295-2.2098.6602c-.6565.4308-1.1728 1.0441-1.4854 1.7644-.1686.5172-.2478 1.0594-.2341 1.6032-.0046.0319-.0017.0643.0085.0948s.0273.0582.05.0809.0504.0398.0809.05c.0305.0101.0629.0131.0947.0085h7.3904c.0318.0046.0642.0016.0947-.0085.0305-.0102.0582-.0273.0809-.05s.0398-.0504.05-.0809.0131-.0629.0086-.0948c.0136-.5438-.0656-1.086-.2342-1.6032z"/><path d="m93.7103 33.0706c-.0522.0032-.1044-.0048-.1532-.0233-.0489-.0186-.0932-.0472-.1301-.0842-.037-.0369-.0656-.0813-.0842-.1301-.0185-.0488-.0265-.1011-.0233-.1532v-21.8186c.0043-.0318.0013-.0642-.0089-.0946s-.0274-.058-.0501-.0807c-.0226-.0227-.0502-.0398-.0806-.05s-.0628-.0133-.0946-.0089h-6.9604c-.0522.0031-.1045-.0048-.1534-.0234s-.0933-.0473-.1303-.0843c-.0369-.0371-.0655-.0815-.084-.1305-.0185-.0489-.0263-.1012-.0231-.1534v-3.36233c-.003-.05212.005-.10429.0236-.15308.0186-.04878.0473-.09309.0842-.13s.0812-.06559.13-.08417c.0488-.01857.1009-.0266.153-.02358h19.0041c.052-.00315.104.00481.153.02334s.093.04721.13.08415c.037.03693.066.08127.084.13012.019.04884.027.10107.024.15322v3.36233c.003.0522-.005.1045-.024.1534-.018.049-.047.0934-.084.1305-.037.037-.081.0657-.13.0843s-.101.0265-.153.0234h-6.9607c-.0317-.0044-.0641-.0013-.0945.0089s-.0581.0273-.0807.05c-.0227.0227-.0398.0503-.05.0807-.0103.0304-.0133.0628-.009.0946v21.8186c.0031.0521-.005.1043-.0235.1531-.0186.0487-.0473.093-.0842.13-.0369.0369-.0812.0655-.13.0841s-.1009.0266-.153.0236z"/><path d="m104.724 28.2578c-.467-1.4925-.692-3.0503-.665-4.6139-.036-1.5745.175-3.145.626-4.6539 1.056-3.2847 3.949-5.2004 7.703-5.2004 3.871 0 6.686 1.998 7.742 5.2004.43 1.3291.626 2.6199.626 5.6697.002.0552-.009.1102-.03.1611-.022.051-.054.0966-.095.1337-.041.0372-.089.0651-.142.0816-.053.0166-.108.0215-.163.0144h-11.614c-.031-.0045-.064-.0016-.094.0086-.031.0102-.059.0273-.081.05-.023.0227-.04.0503-.051.0808-.01.0305-.013.0629-.009.0948.011.5784.136 1.1489.368 1.6788.233.5298.567 1.0085.985 1.4083.418.3999.911.713 1.451.9214s1.115.3079 1.694.2929c.822.0384 1.644-.1025 2.406-.4131.763-.3105 1.45-.7831 2.012-1.3852.031-.046.072-.0848.12-.1141.047-.0293.1-.0483.155-.0558.056-.0075.112-.0034.165.0121.054.0155.104.042.146.0779l2.308 2.0332c.043.0298.08.069.106.1147.026.0458.042.0969.046.1496.003.0526-.005.1055-.024.1545-.02.0491-.05.093-.089.1287-.979 1.0663-2.179 1.9058-3.517 2.4596-1.337.5539-2.779.8088-4.225.7469-3.989.0048-6.807-1.9501-7.86-5.2373zm11.378-8.3287c-.313-.7203-.829-1.3336-1.485-1.7643-.657-.4308-1.425-.6603-2.21-.6603s-1.554.2295-2.21.6603c-.657.4307-1.173 1.044-1.485 1.7643-.169.5172-.249 1.0594-.235 1.6033-.005.0318-.002.0642.009.0947.01.0305.027.0582.05.0809s.05.0398.081.0499c.03.0102.063.0131.095.0086h7.39c.032.0046.064.0017.095-.0085.03-.0102.058-.0273.081-.05.022-.0227.039-.0504.05-.0809.01-.0305.013-.0629.008-.0947.014-.543-.065-1.0844-.233-1.6009z"/><path d="m123.83 28.3001c-.782-3.0527-.782-6.2534 0-9.3061 1.095-3.3631 3.989-5.2005 7.782-5.2005 1.239-.036 2.47.2091 3.601.7169 1.131.5079 2.132 1.2653 2.928 2.2154.035.0381.061.0827.078.1311.016.0485.023.0999.019.151-.003.0512-.017.101-.041.1466-.023.0456-.056.086-.095.1188l-2.464 2.1507c-.039.0363-.085.0634-.136.0793-.051.0158-.104.0201-.157.0124-.052-.0077-.103-.0271-.147-.0568s-.081-.069-.107-.1148c-.411-.5272-.94-.9505-1.545-1.2357-.604-.2853-1.267-.4246-1.935-.4067-.778-.0462-1.549.1721-2.187.6192-.639.4472-1.107 1.097-1.33 1.844-.314 1.132-.446 2.3069-.391 3.4806-.055 1.1854.078 2.372.391 3.5165.232.7385.704 1.3784 1.341 1.8176.637.4393 1.403.6528 2.176.6064.668.0179 1.331-.1214 1.935-.4067.605-.2852 1.134-.7085 1.545-1.2357.029-.0436.069-.0799.114-.1062.046-.0263.097-.042.15-.0457.053-.0038.105.0044.154.0239.049.0196.093.0499.129.0889l2.464 2.1507c.195.1598.16.3524.039.5474-.804.9379-1.808 1.6843-2.938 2.1848-1.129.5005-2.356.7425-3.591.7084-3.793.004-6.687-1.8334-7.782-5.1957z"/><path d="m153.782 33.0706c-.052.0032-.105-.0048-.153-.0233-.049-.0185-.094-.0472-.131-.0841-.037-.037-.065-.0813-.084-.1301-.019-.0489-.027-.1011-.024-.1533v-10.8693c0-2.4249-1.212-4.1056-3.558-4.1056-2.267 0-3.596 1.6783-3.596 4.1056v10.8693c.003.0521-.005.1044-.024.1532-.018.0489-.047.0932-.084.1301-.037.037-.081.0657-.13.0842s-.101.0265-.153.0233h-3.597c-.052.0032-.104-.0048-.153-.0233s-.093-.0472-.13-.0842c-.037-.0369-.066-.0812-.084-.1301-.019-.0488-.027-.1011-.023-.1532v-25.80832c-.004-.05214.004-.10435.023-.1532.018-.04884.047-.0932.084-.13014s.081-.06562.13-.08415c.049-.01852.101-.02649.153-.02334h3.597c.052-.00315.104.00482.153.02334.049.01853.093.04721.13.08415s.066.0813.084.13014c.019.04885.027.10106.024.1532v9.11112h.039c.821-1.1733 2.463-2.1899 4.965-2.1899 4.028 0 6.53 2.9715 6.53 6.9995v11.8868c.003.0522-.005.1044-.023.1532-.019.0489-.048.0932-.085.1302-.036.0369-.081.0656-.13.0841s-.101.0265-.153.0233z"/></g><path d="m39.3228 11.7004h11.5534c.137.0151.2755-.0072.4008-.0644.1254-.0573.2329-.1474.3111-.2608.0783-.1134.1244-.2459.1334-.3834.0091-.1375-.0193-.2749-.082-.3976l-5.7767-9.688884c-.0844-.124778-.198-.226965-.331-.297609s-.2813-.107585-.4319-.107585-.2989.036941-.4319.107585-.2466.172831-.331.297609l-5.7767 9.688884c-.0627.1227-.091.26-.082.3974s.0551.2698.1332.3832c.0782.1134.1855.2035.3107.2608.1253.0573.2637.0797.4006.0648z" fill="#2bb8d9"/></g></g></svg>