<svg height="41.29" viewBox="0 0 196.78 41.29" width="196.78" xmlns="http://www.w3.org/2000/svg"><g fill="#131d34"><path d="m227.8 356.117a.7.7 0 0 1 -.734-.489l-6.361-12.965h-5.724a.26.26 0 0 0 -.294.294v12.672a.462.462 0 0 1 -.489.489h-4.794a.463.463 0 0 1 -.489-.489v-32.293a.462.462 0 0 1 .489-.489h12.867c6.116 0 10.617 4.061 10.617 9.932a9.464 9.464 0 0 1 -6.311 9.149l7 13.553a.393.393 0 0 1 -.342.636zm-.636-23.338c0-2.887-2.055-4.746-5.088-4.746h-7.094a.26.26 0 0 0 -.294.293v8.856a.26.26 0 0 0 .294.293h7.094c3.037.001 5.092-1.858 5.092-4.696z" transform="translate(-208.919 -315.364)"/><path d="m311.377 375.622a.462.462 0 0 1 -.489-.489v-1.713h-.049c-1.125 1.614-3.327 2.74-6.654 2.74-4.305 0-7.926-2.25-7.926-7.192 0-5.137 3.62-7.486 9.442-7.486h4.799a.259.259 0 0 0 .294-.293v-1.126c0-2.691-1.272-3.914-5.235-3.914a8.268 8.268 0 0 0 -5.382 1.615.439.439 0 0 1 -.685-.1l-1.81-3.229a.456.456 0 0 1 .1-.636 13.762 13.762 0 0 1 8.366-2.3c7.192 0 9.834 2.446 9.834 8.22v15.411a.462.462 0 0 1 -.489.489zm-.587-7.926v-1.81a.26.26 0 0 0 -.294-.293h-3.914c-3.523 0-5.088.978-5.088 3.18 0 1.957 1.419 2.936 4.061 2.936 3.376-.001 5.235-1.323 5.235-4.009z" transform="translate(-268.372 -334.869)"/><path d="m1.532 0h2.416a1.532 1.532 0 0 1 1.532 1.532v20.518a1.532 1.532 0 0 1 -1.532 1.532h-2.415a1.533 1.533 0 0 1 -1.533-1.533v-20.517a1.532 1.532 0 0 1 1.532-1.532z" transform="translate(53.05 17.17)"/><path d="m406.884 372.441a.473.473 0 0 1 0-.685l2.789-2.936a.473.473 0 0 1 .685 0 10.915 10.915 0 0 0 6.9 2.691c2.887 0 4.354-1.174 4.354-2.789 0-1.419-.832-2.3-3.914-2.593l-2.544-.245c-4.795-.489-7.241-2.935-7.241-6.947 0-4.55 3.278-7.437 9.149-7.437a14.3 14.3 0 0 1 8.855 2.887.484.484 0 0 1 .1.685l-2.4 2.887a.479.479 0 0 1 -.685.1 11.384 11.384 0 0 0 -6.164-1.957c-2.348 0-3.572 1.027-3.572 2.446 0 1.37.832 2.2 3.865 2.495l2.544.245c4.941.489 7.29 3.033 7.29 6.9 0 4.7-3.425 7.975-9.883 7.975a14.623 14.623 0 0 1 -10.128-3.722z" transform="translate(-343.931 -334.869)"/><path d="m480.964 369.6a18.287 18.287 0 0 1 -.832-5.773 18.794 18.794 0 0 1 .783-5.823c1.321-4.11 4.942-6.507 9.638-6.507 4.844 0 8.366 2.5 9.687 6.507.538 1.663.783 3.278.783 7.094a.477.477 0 0 1 -.538.489h-14.531a.259.259 0 0 0 -.293.293 5.483 5.483 0 0 0 5.626 5.382 7.109 7.109 0 0 0 5.529-2.25.5.5 0 0 1 .734-.1l2.887 2.544a.438.438 0 0 1 .049.685 12.428 12.428 0 0 1 -9.687 4.012c-4.992.006-8.514-2.44-9.835-6.553zm14.236-10.418a5.04 5.04 0 0 0 -9.247 0 5.987 5.987 0 0 0 -.293 2.006.259.259 0 0 0 .293.293h9.247a.259.259 0 0 0 .293-.293 5.986 5.986 0 0 0 -.293-2.006z" transform="translate(-394.026 -334.869)"/><path d="m554.849 356.117a.462.462 0 0 1 -.489-.489v-27.3a.26.26 0 0 0 -.293-.293h-8.709a.462.462 0 0 1 -.489-.49v-4.207a.463.463 0 0 1 .489-.489h23.778a.462.462 0 0 1 .489.489v4.207a.462.462 0 0 1 -.489.49h-8.709a.26.26 0 0 0 -.293.293v27.3a.463.463 0 0 1 -.489.489z" transform="translate(-438.222 -315.364)"/><path d="m617.882 369.6a18.286 18.286 0 0 1 -.831-5.773 18.793 18.793 0 0 1 .783-5.823c1.321-4.11 4.941-6.507 9.638-6.507 4.844 0 8.366 2.5 9.687 6.507.538 1.663.783 3.278.783 7.094a.477.477 0 0 1 -.538.489h-14.531a.26.26 0 0 0 -.294.293 5.485 5.485 0 0 0 5.627 5.382 7.109 7.109 0 0 0 5.528-2.25.5.5 0 0 1 .734-.1l2.887 2.544a.438.438 0 0 1 .049.685 12.428 12.428 0 0 1 -9.687 4.012c-4.991.006-8.517-2.44-9.835-6.553zm14.237-10.421a5.04 5.04 0 0 0 -9.247 0 5.987 5.987 0 0 0 -.294 2.006.26.26 0 0 0 .294.293h9.247a.259.259 0 0 0 .293-.293 5.988 5.988 0 0 0 -.292-2.003z" transform="translate(-487.475 -334.869)"/><path d="m693.787 369.653a23.456 23.456 0 0 1 0-11.644c1.37-4.208 4.99-6.507 9.736-6.507a10.27 10.27 0 0 1 8.17 3.669.476.476 0 0 1 -.049.685l-3.083 2.691a.443.443 0 0 1 -.685-.1 5.339 5.339 0 0 0 -4.354-2.055 4.324 4.324 0 0 0 -4.4 3.082 13.86 13.86 0 0 0 -.49 4.355 14.189 14.189 0 0 0 .49 4.4 4.339 4.339 0 0 0 4.4 3.033 5.339 5.339 0 0 0 4.354-2.055.438.438 0 0 1 .685-.049l3.083 2.691c.244.2.2.441.049.685a10.386 10.386 0 0 1 -8.17 3.62c-4.746.005-8.366-2.294-9.736-6.501z" transform="translate(-539.473 -334.869)"/><path d="m780.911 356.117a.463.463 0 0 1 -.49-.489v-13.6c0-3.034-1.517-5.137-4.452-5.137-2.837 0-4.5 2.1-4.5 5.137v13.6a.462.462 0 0 1 -.489.489h-4.5a.462.462 0 0 1 -.489-.489v-32.292a.462.462 0 0 1 .489-.489h4.5a.462.462 0 0 1 .489.489v11.4h.049c1.027-1.468 3.082-2.74 6.213-2.74 5.039 0 8.17 3.718 8.17 8.758v14.873a.462.462 0 0 1 -.489.489z" transform="translate(-589.121 -315.364)"/></g><path d="m359.582 312.768h14.456a.955.955 0 0 0 .955-1.384l-7.228-12.123a1.152 1.152 0 0 0 -1.909 0l-7.228 12.123a.955.955 0 0 0 .954 1.384z" fill="#2bb8d9" transform="translate(-311.006 -298.754)"/></svg>